<?xml version="1.0" encoding="UTF-8"?>
<!DOCTYPE svg PUBLIC "-//W3C//DTD SVG 1.1//EN" "http://www.w3.org/Graphics/SVG/1.1/DTD/svg11.dtd">
<svg xmlns="http://www.w3.org/2000/svg" version="1.1" width="512px" height="512px" style="shape-rendering:geometricPrecision; text-rendering:geometricPrecision; image-rendering:optimizeQuality; fill-rule:evenodd; clip-rule:evenodd" xmlns:xlink="http://www.w3.org/1999/xlink">
<g><path style="opacity:0.969" fill="#fefbfb" d="M 253.5,-0.5 C 254.833,-0.5 256.167,-0.5 257.5,-0.5C 260.009,0.921263 262.343,2.58793 264.5,4.5C 261.174,4.96721 260.841,6.13388 263.5,8C 260.833,9.33333 260.833,10.6667 263.5,12C 260.833,13.3333 260.833,14.6667 263.5,16C 260.833,17.3333 260.833,18.6667 263.5,20C 260.833,21.3333 260.833,22.6667 263.5,24C 260.833,25.3333 260.833,26.6667 263.5,28C 260.833,29.3333 260.833,30.6667 263.5,32C 260.833,33.3333 260.833,34.6667 263.5,36C 260.833,37.3333 260.833,38.6667 263.5,40C 260.833,41.3333 260.833,42.6667 263.5,44C 260.833,45.3333 260.833,46.6667 263.5,48C 260.833,49.3333 260.833,50.6667 263.5,52C 260.833,53.3333 260.833,54.6667 263.5,56C 260.833,57.3333 260.833,58.6667 263.5,60C 260.833,61.3333 260.833,62.6667 263.5,64C 260.833,65.3333 260.833,66.6667 263.5,68C 260.833,69.3333 260.833,70.6667 263.5,72C 260.833,73.3333 260.833,74.6667 263.5,76C 260.833,77.3333 260.833,78.6667 263.5,80C 260.833,81.3333 260.833,82.6667 263.5,84C 260.833,85.3333 260.833,86.6667 263.5,88C 260.833,89.3333 260.833,90.6667 263.5,92C 260.833,93.3333 260.833,94.6667 263.5,96C 260.833,97.3333 260.833,98.6667 263.5,100C 260.833,101.333 260.833,102.667 263.5,104C 260.833,105.333 260.833,106.667 263.5,108C 260.833,109.333 260.833,110.667 263.5,112C 260.833,113.333 260.833,114.667 263.5,116C 260.833,117.333 260.833,118.667 263.5,120C 260.833,121.333 260.833,122.667 263.5,124C 260.833,125.333 260.833,126.667 263.5,128C 260.833,129.333 260.833,130.667 263.5,132C 260.833,133.333 260.833,134.667 263.5,136C 260.833,137.333 260.833,138.667 263.5,140C 260.833,141.333 260.833,142.667 263.5,144C 260.833,145.333 260.833,146.667 263.5,148C 260.833,149.333 260.833,150.667 263.5,152C 260.833,153.333 260.833,154.667 263.5,156C 260.833,157.333 260.833,158.667 263.5,160C 260.833,161.333 260.833,162.667 263.5,164C 260.833,165.333 260.833,166.667 263.5,168C 260.833,169.333 260.833,170.667 263.5,172C 260.833,173.333 260.833,174.667 263.5,176C 260.833,177.333 260.833,178.667 263.5,180C 260.833,181.333 260.833,182.667 263.5,184C 260.833,185.333 260.833,186.667 263.5,188C 260.833,189.333 260.833,190.667 263.5,192C 260.833,193.333 260.833,194.667 263.5,196C 260.833,197.333 260.833,198.667 263.5,200C 260.833,201.333 260.833,202.667 263.5,204C 260.833,205.333 260.833,206.667 263.5,208C 260.833,209.333 260.833,210.667 263.5,212C 260.833,213.333 260.833,214.667 263.5,216C 260.833,217.333 260.833,218.667 263.5,220C 260.833,221.333 260.833,222.667 263.5,224C 260.833,225.333 260.833,226.667 263.5,228C 260.833,229.333 260.833,230.667 263.5,232C 260.833,233.333 260.833,234.667 263.5,236C 260.833,237.333 260.833,238.667 263.5,240C 260.833,241.333 260.833,242.667 263.5,244C 260.833,245.333 260.833,246.667 263.5,248C 260.833,249.333 260.833,250.667 263.5,252C 260.833,253.333 260.833,254.667 263.5,256C 260.833,257.333 260.833,258.667 263.5,260C 260.833,261.333 260.833,262.667 263.5,264C 260.833,265.333 260.833,266.667 263.5,268C 260.833,269.333 260.833,270.667 263.5,272C 260.833,273.333 260.833,274.667 263.5,276C 260.833,277.333 260.833,278.667 263.5,280C 260.833,281.333 260.833,282.667 263.5,284C 260.833,285.333 260.833,286.667 263.5,288C 260.833,289.333 260.833,290.667 263.5,292C 260.833,293.333 260.833,294.667 263.5,296C 260.833,297.333 260.833,298.667 263.5,300C 260.833,301.333 260.833,302.667 263.5,304C 260.833,305.333 260.833,306.667 263.5,308C 260.833,309.333 260.833,310.667 263.5,312C 260.833,313.333 260.833,314.667 263.5,316C 260.833,317.333 260.833,318.667 263.5,320C 260.833,321.333 260.833,322.667 263.5,324C 260.833,325.333 260.833,326.667 263.5,328C 260.833,329.333 260.833,330.667 263.5,332C 260.833,333.333 260.833,334.667 263.5,336C 260.833,337.333 260.833,338.667 263.5,340C 260.833,341.333 260.833,342.667 263.5,344C 260.833,345.333 260.833,346.667 263.5,348C 260.833,349.333 260.833,350.667 263.5,352C 260.833,353.333 260.833,354.667 263.5,356C 260.833,357.333 260.833,358.667 263.5,360C 260.833,361.333 260.833,362.667 263.5,364C 260.833,365.333 260.833,366.667 263.5,368C 260.833,369.333 260.833,370.667 263.5,372C 260.833,373.333 260.833,374.667 263.5,376C 260.833,377.333 260.833,378.667 263.5,380C 260.833,381.333 260.833,382.667 263.5,384C 260.833,385.333 260.833,386.667 263.5,388C 260.833,389.333 260.833,390.667 263.5,392C 260.833,393.333 260.833,394.667 263.5,396C 260.833,397.333 260.833,398.667 263.5,400C 260.833,401.333 260.833,402.667 263.5,404C 260.833,405.333 260.833,406.667 263.5,408C 260.833,409.333 260.833,410.667 263.5,412C 260.833,413.333 260.833,414.667 263.5,416C 260.833,417.333 260.833,418.667 263.5,420C 260.833,421.333 260.833,422.667 263.5,424C 260.833,425.333 260.833,426.667 263.5,428C 260.833,429.333 260.833,430.667 263.5,432C 260.833,433.333 260.833,434.667 263.5,436C 260.833,437.333 260.833,438.667 263.5,440C 260.833,441.333 260.833,442.667 263.5,444C 260.833,445.333 260.833,446.667 263.5,448C 260.833,449.333 260.833,450.667 263.5,452C 260.833,453.333 260.833,454.667 263.5,456C 260.833,457.333 260.833,458.667 263.5,460C 260.833,461.333 260.833,462.667 263.5,464C 260.833,465.333 260.833,466.667 263.5,468C 260.833,469.333 260.833,470.667 263.5,472C 260.833,473.333 260.833,474.667 263.5,476C 260.833,477.333 260.833,478.667 263.5,480C 260.833,481.333 260.833,482.667 263.5,484C 260.833,485.333 260.833,486.667 263.5,488C 260.833,489.333 260.833,490.667 263.5,492C 260.833,493.333 260.833,494.667 263.5,496C 260.833,497.333 260.833,498.667 263.5,500C 262.833,500.667 262.167,501.333 261.5,502C 262.528,503.632 263.528,505.132 264.5,506.5C 262.343,508.412 260.009,510.079 257.5,511.5C 256.167,511.5 254.833,511.5 253.5,511.5C 180.727,468.941 107.727,426.608 34.5,384.5C 33.1667,298.5 33.1667,212.5 34.5,126.5C 107.727,84.3924 180.727,42.0591 253.5,-0.5 Z M 239.5,43.5 C 239.524,68.9203 239.524,94.5869 239.5,120.5C 195.832,120.667 152.165,120.5 108.5,120C 152.558,94.9781 196.225,69.4781 239.5,43.5 Z M 107.5,152.5 C 151.33,151.501 195.33,151.168 239.5,151.5C 239.833,176.842 239.5,202.175 238.5,227.5C 194.941,202.223 151.275,177.223 107.5,152.5 Z M 91.5,180.5 C 92.7211,179.535 94.0544,179.702 95.5,181C 138.5,206 181.5,231 224.5,256C 202.252,268.707 180.085,281.54 158,294.5C 136.059,256.273 113.892,218.273 91.5,180.5 Z M 64.5,195.5 C 86.8361,233.202 108.836,271.202 130.5,309.5C 108.796,322.366 86.9628,335.033 65,347.5C 64.5,296.834 64.3333,246.168 64.5,195.5 Z M 239.5,283.5 C 239.667,333.834 239.5,384.168 239,434.5C 217.04,396.748 195.207,358.915 173.5,321C 195.69,308.741 217.69,296.241 239.5,283.5 Z M 211.5,450.5 C 167.861,425.345 124.194,400.178 80.5,375C 101.942,361.861 123.775,349.361 146,337.5C 168.459,374.795 190.292,412.462 211.5,450.5 Z"/></g>
<g><path style="opacity:0.996" fill="#fbf7f7" d="M 264.5,4.5 C 271.097,7.7753 277.43,11.442 283.5,15.5C 282.244,15.4614 281.244,15.9614 280.5,17C 280.174,27.6758 280.507,38.5091 281.5,49.5C 277.811,47.9031 274.311,45.9031 271,43.5C 271.481,69.0859 271.647,94.7526 271.5,120.5C 277.167,120.5 282.833,120.5 288.5,120.5C 285.833,121.106 283.166,121.939 280.5,123C 281.833,131.667 281.833,140.333 280.5,149C 281.381,149.708 282.047,150.542 282.5,151.5C 278.833,151.5 275.167,151.5 271.5,151.5C 270.691,176.841 271.024,202.174 272.5,227.5C 275.867,225.775 279.2,224.108 282.5,222.5C 282.047,223.458 281.381,224.292 280.5,225C 281.598,245.784 281.598,266.618 280.5,287.5C 277.886,286.193 275.22,284.86 272.5,283.5C 271.803,287.377 271.136,291.21 270.5,295C 271.235,340.963 271.735,387.463 272,434.5C 272.608,432.934 273.442,431.6 274.5,430.5C 275.706,431.88 275.373,433.047 273.5,434C 273.5,455.333 273.5,476.667 273.5,498C 274.244,499.039 275.244,499.539 276.5,499.5C 272.836,502.335 268.836,504.668 264.5,506.5C 263.528,505.132 262.528,503.632 261.5,502C 262.167,501.333 262.833,500.667 263.5,500C 260.833,498.667 260.833,497.333 263.5,496C 260.833,494.667 260.833,493.333 263.5,492C 260.833,490.667 260.833,489.333 263.5,488C 260.833,486.667 260.833,485.333 263.5,484C 260.833,482.667 260.833,481.333 263.5,480C 260.833,478.667 260.833,477.333 263.5,476C 260.833,474.667 260.833,473.333 263.5,472C 260.833,470.667 260.833,469.333 263.5,468C 260.833,466.667 260.833,465.333 263.5,464C 260.833,462.667 260.833,461.333 263.5,460C 260.833,458.667 260.833,457.333 263.5,456C 260.833,454.667 260.833,453.333 263.5,452C 260.833,450.667 260.833,449.333 263.5,448C 260.833,446.667 260.833,445.333 263.5,444C 260.833,442.667 260.833,441.333 263.5,440C 260.833,438.667 260.833,437.333 263.5,436C 260.833,434.667 260.833,433.333 263.5,432C 260.833,430.667 260.833,429.333 263.5,428C 260.833,426.667 260.833,425.333 263.5,424C 260.833,422.667 260.833,421.333 263.5,420C 260.833,418.667 260.833,417.333 263.5,416C 260.833,414.667 260.833,413.333 263.5,412C 260.833,410.667 260.833,409.333 263.5,408C 260.833,406.667 260.833,405.333 263.5,404C 260.833,402.667 260.833,401.333 263.5,400C 260.833,398.667 260.833,397.333 263.5,396C 260.833,394.667 260.833,393.333 263.5,392C 260.833,390.667 260.833,389.333 263.5,388C 260.833,386.667 260.833,385.333 263.5,384C 260.833,382.667 260.833,381.333 263.5,380C 260.833,378.667 260.833,377.333 263.5,376C 260.833,374.667 260.833,373.333 263.5,372C 260.833,370.667 260.833,369.333 263.5,368C 260.833,366.667 260.833,365.333 263.5,364C 260.833,362.667 260.833,361.333 263.5,360C 260.833,358.667 260.833,357.333 263.5,356C 260.833,354.667 260.833,353.333 263.5,352C 260.833,350.667 260.833,349.333 263.5,348C 260.833,346.667 260.833,345.333 263.5,344C 260.833,342.667 260.833,341.333 263.5,340C 260.833,338.667 260.833,337.333 263.5,336C 260.833,334.667 260.833,333.333 263.5,332C 260.833,330.667 260.833,329.333 263.5,328C 260.833,326.667 260.833,325.333 263.5,324C 260.833,322.667 260.833,321.333 263.5,320C 260.833,318.667 260.833,317.333 263.5,316C 260.833,314.667 260.833,313.333 263.5,312C 260.833,310.667 260.833,309.333 263.5,308C 260.833,306.667 260.833,305.333 263.5,304C 260.833,302.667 260.833,301.333 263.5,300C 260.833,298.667 260.833,297.333 263.5,296C 260.833,294.667 260.833,293.333 263.5,292C 260.833,290.667 260.833,289.333 263.5,288C 260.833,286.667 260.833,285.333 263.5,284C 260.833,282.667 260.833,281.333 263.5,280C 260.833,278.667 260.833,277.333 263.5,276C 260.833,274.667 260.833,273.333 263.5,272C 260.833,270.667 260.833,269.333 263.5,268C 260.833,266.667 260.833,265.333 263.5,264C 260.833,262.667 260.833,261.333 263.5,260C 260.833,258.667 260.833,257.333 263.5,256C 260.833,254.667 260.833,253.333 263.5,252C 260.833,250.667 260.833,249.333 263.5,248C 260.833,246.667 260.833,245.333 263.5,244C 260.833,242.667 260.833,241.333 263.5,240C 260.833,238.667 260.833,237.333 263.5,236C 260.833,234.667 260.833,233.333 263.5,232C 260.833,230.667 260.833,229.333 263.5,228C 260.833,226.667 260.833,225.333 263.5,224C 260.833,222.667 260.833,221.333 263.5,220C 260.833,218.667 260.833,217.333 263.5,216C 260.833,214.667 260.833,213.333 263.5,212C 260.833,210.667 260.833,209.333 263.5,208C 260.833,206.667 260.833,205.333 263.5,204C 260.833,202.667 260.833,201.333 263.5,200C 260.833,198.667 260.833,197.333 263.5,196C 260.833,194.667 260.833,193.333 263.5,192C 260.833,190.667 260.833,189.333 263.5,188C 260.833,186.667 260.833,185.333 263.5,184C 260.833,182.667 260.833,181.333 263.5,180C 260.833,178.667 260.833,177.333 263.5,176C 260.833,174.667 260.833,173.333 263.5,172C 260.833,170.667 260.833,169.333 263.5,168C 260.833,166.667 260.833,165.333 263.5,164C 260.833,162.667 260.833,161.333 263.5,160C 260.833,158.667 260.833,157.333 263.5,156C 260.833,154.667 260.833,153.333 263.5,152C 260.833,150.667 260.833,149.333 263.5,148C 260.833,146.667 260.833,145.333 263.5,144C 260.833,142.667 260.833,141.333 263.5,140C 260.833,138.667 260.833,137.333 263.5,136C 260.833,134.667 260.833,133.333 263.5,132C 260.833,130.667 260.833,129.333 263.5,128C 260.833,126.667 260.833,125.333 263.5,124C 260.833,122.667 260.833,121.333 263.5,120C 260.833,118.667 260.833,117.333 263.5,116C 260.833,114.667 260.833,113.333 263.5,112C 260.833,110.667 260.833,109.333 263.5,108C 260.833,106.667 260.833,105.333 263.5,104C 260.833,102.667 260.833,101.333 263.5,100C 260.833,98.6667 260.833,97.3333 263.5,96C 260.833,94.6667 260.833,93.3333 263.5,92C 260.833,90.6667 260.833,89.3333 263.5,88C 260.833,86.6667 260.833,85.3333 263.5,84C 260.833,82.6667 260.833,81.3333 263.5,80C 260.833,78.6667 260.833,77.3333 263.5,76C 260.833,74.6667 260.833,73.3333 263.5,72C 260.833,70.6667 260.833,69.3333 263.5,68C 260.833,66.6667 260.833,65.3333 263.5,64C 260.833,62.6667 260.833,61.3333 263.5,60C 260.833,58.6667 260.833,57.3333 263.5,56C 260.833,54.6667 260.833,53.3333 263.5,52C 260.833,50.6667 260.833,49.3333 263.5,48C 260.833,46.6667 260.833,45.3333 263.5,44C 260.833,42.6667 260.833,41.3333 263.5,40C 260.833,38.6667 260.833,37.3333 263.5,36C 260.833,34.6667 260.833,33.3333 263.5,32C 260.833,30.6667 260.833,29.3333 263.5,28C 260.833,26.6667 260.833,25.3333 263.5,24C 260.833,22.6667 260.833,21.3333 263.5,20C 260.833,18.6667 260.833,17.3333 263.5,16C 260.833,14.6667 260.833,13.3333 263.5,12C 260.833,10.6667 260.833,9.33333 263.5,8C 260.841,6.13388 261.174,4.96721 264.5,4.5 Z"/></g>
<g><path style="opacity:0.999" fill="#f5f0f0" d="M 283.5,15.5 C 289.668,18.0804 295.335,21.4137 300.5,25.5C 299.711,25.7828 299.044,26.2828 298.5,27C 299.833,37 299.833,47 298.5,57C 299.305,58.1127 299.972,59.2794 300.5,60.5C 293.903,57.2247 287.57,53.558 281.5,49.5C 280.507,38.5091 280.174,27.6758 280.5,17C 281.244,15.9614 282.244,15.4614 283.5,15.5 Z"/></g>
<g><path style="opacity:1" fill="#f0eaea" d="M 300.5,25.5 C 307.332,28.4124 313.666,32.0791 319.5,36.5C 318.448,36.3505 317.448,36.5172 316.5,37C 317.458,38.1475 317.125,39.1475 315.5,40C 318.167,41.3333 318.167,42.6667 315.5,44C 318.167,45.3333 318.167,46.6667 315.5,48C 318.167,49.3333 318.167,50.6667 315.5,52C 318.167,53.3333 318.167,54.6667 315.5,56C 318.167,57.3333 318.167,58.6667 315.5,60C 318.167,61.3333 318.167,62.6667 315.5,64C 318.167,65.3333 318.167,66.6667 315.5,68C 316.056,68.3826 316.389,68.8826 316.5,69.5C 310.835,67.0031 305.502,64.0031 300.5,60.5C 299.972,59.2794 299.305,58.1127 298.5,57C 299.833,47 299.833,37 298.5,27C 299.044,26.2828 299.711,25.7828 300.5,25.5 Z"/></g>
<g><path style="opacity:1" fill="#ebe4e4" d="M 319.5,36.5 C 326.996,39.7448 333.996,43.7448 340.5,48.5C 338.407,47.0274 336.74,47.5274 335.5,50C 335.5,59.3333 335.5,68.6667 335.5,78C 337.033,80.0289 338.699,81.8622 340.5,83.5C 332.164,79.3347 324.164,74.668 316.5,69.5C 316.389,68.8826 316.056,68.3826 315.5,68C 318.167,66.6667 318.167,65.3333 315.5,64C 318.167,62.6667 318.167,61.3333 315.5,60C 318.167,58.6667 318.167,57.3333 315.5,56C 318.167,54.6667 318.167,53.3333 315.5,52C 318.167,50.6667 318.167,49.3333 315.5,48C 318.167,46.6667 318.167,45.3333 315.5,44C 318.167,42.6667 318.167,41.3333 315.5,40C 317.125,39.1475 317.458,38.1475 316.5,37C 317.448,36.5172 318.448,36.3505 319.5,36.5 Z"/></g>
<g><path style="opacity:1" fill="#e5dede" d="M 340.5,48.5 C 347.332,51.4124 353.666,55.0791 359.5,59.5C 357.32,58.1448 355.32,58.3115 353.5,60C 353.599,70.4549 353.933,80.9549 354.5,91.5C 349.5,89.3357 344.833,86.669 340.5,83.5C 338.699,81.8622 337.033,80.0289 335.5,78C 335.5,68.6667 335.5,59.3333 335.5,50C 336.74,47.5274 338.407,47.0274 340.5,48.5 Z"/></g>
<g><path style="opacity:1" fill="#e0d7d7" d="M 359.5,59.5 C 365.165,61.9969 370.498,64.9969 375.5,68.5C 373.897,68.3118 372.563,68.8118 371.5,70C 372.168,80.3324 372.168,90.8324 371.5,101.5C 365.332,98.9196 359.665,95.5863 354.5,91.5C 353.933,80.9549 353.599,70.4549 353.5,60C 355.32,58.3115 357.32,58.1448 359.5,59.5 Z"/></g>
<g><path style="opacity:1" fill="#dad1d1" d="M 375.5,68.5 C 381.668,71.0804 387.335,74.4137 392.5,78.5C 391.761,78.369 391.094,78.5357 390.5,79C 390.833,80.6667 391.167,82.3333 391.5,84C 388.833,85.3333 388.833,86.6667 391.5,88C 391.5,89.3333 391.5,90.6667 391.5,92C 388.833,93.3333 388.833,94.6667 391.5,96C 391.5,97.3333 391.5,98.6667 391.5,100C 388.833,101.333 388.833,102.667 391.5,104C 391.5,105.333 391.5,106.667 391.5,108C 389.452,109.226 389.119,110.726 390.5,112.5C 383.903,109.225 377.57,105.558 371.5,101.5C 372.168,90.8324 372.168,80.3324 371.5,70C 372.563,68.8118 373.897,68.3118 375.5,68.5 Z"/></g>
<g><path style="opacity:1" fill="#d7cdcd" d="M 392.5,78.5 C 396.836,80.332 400.836,82.6654 404.5,85.5C 403.448,85.3505 402.448,85.5172 401.5,86C 402.833,96 402.833,106 401.5,116C 402.823,116.816 403.489,117.983 403.5,119.5C 403.167,119.5 402.833,119.5 402.5,119.5C 398.164,117.668 394.164,115.335 390.5,112.5C 389.119,110.726 389.452,109.226 391.5,108C 391.5,106.667 391.5,105.333 391.5,104C 388.833,102.667 388.833,101.333 391.5,100C 391.5,98.6667 391.5,97.3333 391.5,96C 388.833,94.6667 388.833,93.3333 391.5,92C 391.5,90.6667 391.5,89.3333 391.5,88C 388.833,86.6667 388.833,85.3333 391.5,84C 391.167,82.3333 390.833,80.6667 390.5,79C 391.094,78.5357 391.761,78.369 392.5,78.5 Z"/></g>
<g><path style="opacity:1" fill="#d4caca" d="M 404.5,85.5 C 407.992,86.4097 410.992,88.0764 413.5,90.5C 412.448,90.3505 411.448,90.5172 410.5,91C 411.833,121 411.833,151 410.5,181C 411.793,181.49 413.127,181.657 414.5,181.5C 411.001,183.75 407.335,185.75 403.5,187.5C 402.711,187.217 402.044,186.717 401.5,186C 402.833,176 402.833,166 401.5,156C 402.305,154.887 402.972,153.721 403.5,152.5C 404.376,152.631 405.043,152.298 405.5,151.5C 400.208,150.505 394.875,150.172 389.5,150.5C 389.953,149.542 390.619,148.708 391.5,148C 391.5,146.667 391.5,145.333 391.5,144C 388.833,142.667 388.833,141.333 391.5,140C 391.5,138.667 391.5,137.333 391.5,136C 388.833,134.667 388.833,133.333 391.5,132C 391.5,130.667 391.5,129.333 391.5,128C 388.833,126.667 388.833,125.333 391.5,124C 390.402,123.23 390.402,122.397 391.5,121.5C 396.179,121.666 400.845,121.499 405.5,121C 404.956,120.283 404.289,119.783 403.5,119.5C 403.489,117.983 402.823,116.816 401.5,116C 402.833,106 402.833,96 401.5,86C 402.448,85.5172 403.448,85.3505 404.5,85.5 Z"/></g>
<g><path style="opacity:1" fill="#d1c6c6" d="M 413.5,90.5 C 419.165,92.9969 424.498,95.9969 429.5,99.5C 427.418,99.528 425.584,98.8613 424,97.5C 423.749,99.433 423.249,101.266 422.5,103C 423.833,143 423.833,183 422.5,223C 422.846,225.94 423.846,228.44 425.5,230.5C 421.656,238.199 417.322,245.532 412.5,252.5C 411.352,253.895 410.352,253.728 409.5,252C 410.833,235.333 410.833,218.667 409.5,202C 410.167,201.333 410.833,200.667 411.5,200C 411.786,198.612 411.452,197.112 410.5,195.5C 413.322,190.196 415.822,184.863 418,179.5C 416.887,180.305 415.721,180.972 414.5,181.5C 413.127,181.657 411.793,181.49 410.5,181C 411.833,151 411.833,121 410.5,91C 411.448,90.5172 412.448,90.3505 413.5,90.5 Z"/></g>
<g><path style="opacity:1" fill="#cdc2c2" d="M 429.5,99.5 C 430.167,99.5 430.5,99.8333 430.5,100.5C 429.761,100.369 429.094,100.536 428.5,101C 429.833,140.333 429.833,179.667 428.5,219C 429.352,220.728 430.352,220.895 431.5,219.5C 429.75,223.335 427.75,227.001 425.5,230.5C 423.846,228.44 422.846,225.94 422.5,223C 423.833,183 423.833,143 422.5,103C 423.249,101.266 423.749,99.433 424,97.5C 425.584,98.8613 427.418,99.528 429.5,99.5 Z"/></g>
<g><path style="opacity:1" fill="#cbbfbf" d="M 430.5,100.5 C 437.332,103.412 443.666,107.079 449.5,111.5C 447.804,111.685 446.471,112.519 445.5,114C 445.929,140.284 446.263,166.451 446.5,192.5C 445.89,193.391 445.557,194.391 445.5,195.5C 441.335,203.836 436.668,211.836 431.5,219.5C 430.352,220.895 429.352,220.728 428.5,219C 429.833,179.667 429.833,140.333 428.5,101C 429.094,100.536 429.761,100.369 430.5,100.5 Z"/></g>
<g><path style="opacity:1" fill="#c5b8b8" d="M 449.5,111.5 C 455.668,114.08 461.335,117.414 466.5,121.5C 465.373,122.122 464.373,122.955 463.5,124C 464.096,211.772 464.096,299.772 463.5,388C 464.563,389.188 465.897,389.688 467.5,389.5C 462.498,393.003 457.165,396.003 451.5,398.5C 450.504,398.586 449.671,398.252 449,397.5C 448.167,400 447,400.167 445.5,398C 446.833,382.667 446.833,367.333 445.5,352C 446.823,351.184 447.489,350.017 447.5,348.5C 447.832,296.331 447.499,244.331 446.5,192.5C 446.263,166.451 445.929,140.284 445.5,114C 446.471,112.519 447.804,111.685 449.5,111.5 Z"/></g>
<g><path style="opacity:0.997" fill="#f5f0f0" d="M 288.5,120.5 C 302.5,120.5 316.5,120.5 330.5,120.5C 326.366,121.485 322.032,121.818 317.5,121.5C 310.986,121.045 304.653,121.545 298.5,123C 299.833,131.667 299.833,140.333 298.5,149C 302.503,150.1 306.503,150.933 310.5,151.5C 301.167,151.5 291.833,151.5 282.5,151.5C 282.047,150.542 281.381,149.708 280.5,149C 281.833,140.333 281.833,131.667 280.5,123C 283.166,121.939 285.833,121.106 288.5,120.5 Z"/></g>
<g><path style="opacity:0.997" fill="#efeaea" d="M 317.5,121.5 C 315.069,123.068 315.069,124.568 317.5,126C 314.833,127.333 314.833,128.667 317.5,130C 314.833,131.333 314.833,132.667 317.5,134C 314.833,135.333 314.833,136.667 317.5,138C 314.833,139.333 314.833,140.667 317.5,142C 314.833,143.333 314.833,144.667 317.5,146C 314.833,147.333 314.833,148.667 317.5,150C 323.348,150.173 329.015,150.673 334.5,151.5C 326.5,151.5 318.5,151.5 310.5,151.5C 306.503,150.933 302.503,150.1 298.5,149C 299.833,140.333 299.833,131.667 298.5,123C 304.653,121.545 310.986,121.045 317.5,121.5 Z"/></g>
<g><path style="opacity:0.997" fill="#eae4e4" d="M 402.5,119.5 C 402.833,119.5 403.167,119.5 403.5,119.5C 404.289,119.783 404.956,120.283 405.5,121C 400.845,121.499 396.179,121.666 391.5,121.5C 385.5,121.5 379.5,121.5 373.5,121.5C 366.833,121.5 360.167,121.5 353.5,121.5C 347.491,121.334 341.491,121.501 335.5,122C 336.833,130.667 336.833,139.333 335.5,148C 336.167,148.667 336.833,149.333 337.5,150C 342.823,150.499 348.156,150.666 353.5,150.5C 355.099,150.232 356.432,150.566 357.5,151.5C 349.833,151.5 342.167,151.5 334.5,151.5C 329.015,150.673 323.348,150.173 317.5,150C 314.833,148.667 314.833,147.333 317.5,146C 314.833,144.667 314.833,143.333 317.5,142C 314.833,140.667 314.833,139.333 317.5,138C 314.833,136.667 314.833,135.333 317.5,134C 314.833,132.667 314.833,131.333 317.5,130C 314.833,128.667 314.833,127.333 317.5,126C 315.069,124.568 315.069,123.068 317.5,121.5C 322.032,121.818 326.366,121.485 330.5,120.5C 354.672,120.831 378.672,120.498 402.5,119.5 Z"/></g>
<g><path style="opacity:1" fill="#e5dddd" d="M 353.5,121.5 C 353.5,131.167 353.5,140.833 353.5,150.5C 348.156,150.666 342.823,150.499 337.5,150C 336.833,149.333 336.167,148.667 335.5,148C 336.833,139.333 336.833,130.667 335.5,122C 341.491,121.501 347.491,121.334 353.5,121.5 Z"/></g>
<g><path style="opacity:1" fill="#dfd7d7" d="M 353.5,121.5 C 360.167,121.5 366.833,121.5 373.5,121.5C 372.933,130.711 372.6,139.878 372.5,149C 377.981,150.449 383.648,150.949 389.5,150.5C 394.875,150.172 400.208,150.505 405.5,151.5C 405.043,152.298 404.376,152.631 403.5,152.5C 388.342,151.504 373.009,151.17 357.5,151.5C 356.432,150.566 355.099,150.232 353.5,150.5C 353.5,140.833 353.5,131.167 353.5,121.5 Z"/></g>
<g><path style="opacity:1" fill="#dad0d0" d="M 373.5,121.5 C 379.5,121.5 385.5,121.5 391.5,121.5C 390.402,122.397 390.402,123.23 391.5,124C 388.833,125.333 388.833,126.667 391.5,128C 391.5,129.333 391.5,130.667 391.5,132C 388.833,133.333 388.833,134.667 391.5,136C 391.5,137.333 391.5,138.667 391.5,140C 388.833,141.333 388.833,142.667 391.5,144C 391.5,145.333 391.5,146.667 391.5,148C 390.619,148.708 389.953,149.542 389.5,150.5C 383.648,150.949 377.981,150.449 372.5,149C 372.6,139.878 372.933,130.711 373.5,121.5 Z"/></g>
<g><path style="opacity:1" fill="#c2b4b4" d="M 466.5,121.5 C 468.819,121.992 470.819,122.992 472.5,124.5C 471.127,124.343 469.793,124.51 468.5,125C 468.5,211.667 468.5,298.333 468.5,385C 469.563,386.188 470.897,386.688 472.5,386.5C 471.035,387.737 469.368,388.737 467.5,389.5C 465.897,389.688 464.563,389.188 463.5,388C 464.096,299.772 464.096,211.772 463.5,124C 464.373,122.955 465.373,122.122 466.5,121.5 Z"/></g>
<g><path style="opacity:1" fill="#c1b4b4" d="M 472.5,124.5 C 474.044,124.703 475.378,125.37 476.5,126.5C 477.833,212.5 477.833,298.5 476.5,384.5C 475.378,385.63 474.044,386.297 472.5,386.5C 470.897,386.688 469.563,386.188 468.5,385C 468.5,298.333 468.5,211.667 468.5,125C 469.793,124.51 471.127,124.343 472.5,124.5 Z"/></g>
<g><path style="opacity:1" fill="#d8cfcf" d="M 403.5,152.5 C 402.972,153.721 402.305,154.887 401.5,156C 402.833,166 402.833,176 401.5,186C 402.044,186.717 402.711,187.217 403.5,187.5C 397.666,191.921 391.332,195.588 384.5,198.5C 383.448,198.649 382.448,198.483 381.5,198C 381.736,187.215 381.736,176.382 381.5,165.5C 388.496,160.666 395.829,156.333 403.5,152.5 Z"/></g>
<g><path style="opacity:1" fill="#dcd3d3" d="M 381.5,165.5 C 381.736,176.382 381.736,187.215 381.5,198C 382.448,198.483 383.448,198.649 384.5,198.5C 382.206,200.653 379.54,202.32 376.5,203.5C 374.571,203.769 372.905,203.269 371.5,202C 371.5,192.667 371.5,183.333 371.5,174C 372.883,172.729 373.883,171.229 374.5,169.5C 376.336,167.412 378.669,166.079 381.5,165.5 Z"/></g>
<g><path style="opacity:1" fill="#e1d9d9" d="M 374.5,169.5 C 373.883,171.229 372.883,172.729 371.5,174C 371.5,183.333 371.5,192.667 371.5,202C 372.905,203.269 374.571,203.769 376.5,203.5C 370.162,207.671 363.496,211.337 356.5,214.5C 355.373,213.878 354.373,213.045 353.5,212C 353.5,202.667 353.5,193.333 353.5,184C 354.823,183.184 355.489,182.017 355.5,180.5C 361.334,176.079 367.668,172.412 374.5,169.5 Z"/></g>
<g><path style="opacity:1" fill="#e5dede" d="M 355.5,180.5 C 355.489,182.017 354.823,183.184 353.5,184C 353.5,193.333 353.5,202.667 353.5,212C 354.373,213.045 355.373,213.878 356.5,214.5C 351.335,218.586 345.668,221.92 339.5,224.5C 337.804,224.315 336.471,223.481 335.5,222C 335.5,212.667 335.5,203.333 335.5,194C 336.823,193.184 337.489,192.017 337.5,190.5C 343.17,186.663 349.17,183.33 355.5,180.5 Z"/></g>
<g><path style="opacity:1" fill="#ebe4e4" d="M 337.5,190.5 C 337.489,192.017 336.823,193.184 335.5,194C 335.5,203.333 335.5,212.667 335.5,222C 336.471,223.481 337.804,224.315 339.5,224.5C 332.996,229.255 325.996,233.255 318.5,236.5C 315.001,236.741 314.668,235.908 317.5,234C 314.833,232.667 314.833,231.333 317.5,230C 314.833,228.667 314.833,227.333 317.5,226C 314.833,224.667 314.833,223.333 317.5,222C 314.833,220.667 314.833,219.333 317.5,218C 314.833,216.667 314.833,215.333 317.5,214C 314.833,212.667 314.833,211.333 317.5,210C 314.833,208.667 314.833,207.333 317.5,206C 316.619,205.292 315.953,204.458 315.5,203.5C 322.496,198.666 329.829,194.333 337.5,190.5 Z"/></g>
<g><path style="opacity:1" fill="#d4caca" d="M 410.5,195.5 C 411.452,197.112 411.786,198.612 411.5,200C 410.833,200.667 410.167,201.333 409.5,202C 410.833,218.667 410.833,235.333 409.5,252C 410.352,253.728 411.352,253.895 412.5,252.5C 410.668,256.836 408.335,260.836 405.5,264.5C 404.015,265.935 402.682,265.768 401.5,264C 402.501,246.007 402.835,227.84 402.5,209.5C 404.664,204.5 407.331,199.833 410.5,195.5 Z"/></g>
<g><path style="opacity:0.999" fill="#f0eaea" d="M 315.5,203.5 C 315.953,204.458 316.619,205.292 317.5,206C 314.833,207.333 314.833,208.667 317.5,210C 314.833,211.333 314.833,212.667 317.5,214C 314.833,215.333 314.833,216.667 317.5,218C 314.833,219.333 314.833,220.667 317.5,222C 314.833,223.333 314.833,224.667 317.5,226C 314.833,227.333 314.833,228.667 317.5,230C 314.833,231.333 314.833,232.667 317.5,234C 314.668,235.908 315.001,236.741 318.5,236.5C 313.335,240.586 307.668,243.92 301.5,246.5C 300.244,246.539 299.244,246.039 298.5,245C 298.174,234.324 298.507,223.491 299.5,212.5C 304.502,208.997 309.835,205.997 315.5,203.5 Z"/></g>
<g><path style="opacity:1" fill="#d7cdcd" d="M 402.5,209.5 C 402.835,227.84 402.501,246.007 401.5,264C 402.682,265.768 404.015,265.935 405.5,264.5C 401.559,272.428 397.226,280.095 392.5,287.5C 389.174,287.033 388.841,285.866 391.5,284C 391.5,282.667 391.5,281.333 391.5,280C 388.833,278.667 388.833,277.333 391.5,276C 391.5,274.667 391.5,273.333 391.5,272C 388.833,270.667 388.833,269.333 391.5,268C 391.5,266.667 391.5,265.333 391.5,264C 388.833,262.667 388.833,261.333 391.5,260C 391.5,258.667 391.5,257.333 391.5,256C 388.833,254.667 388.833,253.333 391.5,252C 391.5,250.667 391.5,249.333 391.5,248C 388.833,246.667 388.833,245.333 391.5,244C 391.5,242.667 391.5,241.333 391.5,240C 388.833,238.667 388.833,237.333 391.5,236C 390.484,234.058 390.151,231.891 390.5,229.5C 394.012,222.466 398.012,215.799 402.5,209.5 Z"/></g>
<g><path style="opacity:0.997" fill="#f5f0f0" d="M 299.5,212.5 C 298.507,223.491 298.174,234.324 298.5,245C 299.244,246.039 300.244,246.539 301.5,246.5C 296.898,249.476 292.231,252.476 287.5,255.5C 293.402,258.942 299.068,262.608 304.5,266.5C 302.506,265.65 300.506,265.15 298.5,265C 299.07,276.114 299.404,287.281 299.5,298.5C 292.995,295.083 286.662,291.416 280.5,287.5C 281.598,266.618 281.598,245.784 280.5,225C 281.381,224.292 282.047,223.458 282.5,222.5C 287.665,218.414 293.332,215.08 299.5,212.5 Z"/></g>
<g><path style="opacity:1" fill="#dbd2d2" d="M 390.5,229.5 C 390.151,231.891 390.484,234.058 391.5,236C 388.833,237.333 388.833,238.667 391.5,240C 391.5,241.333 391.5,242.667 391.5,244C 388.833,245.333 388.833,246.667 391.5,248C 391.5,249.333 391.5,250.667 391.5,252C 388.833,253.333 388.833,254.667 391.5,256C 391.5,257.333 391.5,258.667 391.5,260C 388.833,261.333 388.833,262.667 391.5,264C 391.5,265.333 391.5,266.667 391.5,268C 388.833,269.333 388.833,270.667 391.5,272C 391.5,273.333 391.5,274.667 391.5,276C 388.833,277.333 388.833,278.667 391.5,280C 391.5,281.333 391.5,282.667 391.5,284C 388.841,285.866 389.174,287.033 392.5,287.5C 388.525,294.779 384.525,302.113 380.5,309.5C 384.873,312.228 389.206,314.895 393.5,317.5C 389.71,317.008 389.044,317.841 391.5,320C 391.5,321.333 391.5,322.667 391.5,324C 388.833,325.333 388.833,326.667 391.5,328C 391.5,329.333 391.5,330.667 391.5,332C 388.833,333.333 388.833,334.667 391.5,336C 391.5,337.333 391.5,338.667 391.5,340C 388.833,341.333 388.833,342.667 391.5,344C 390.789,346.308 390.789,348.808 391.5,351.5C 384.668,348.588 378.334,344.921 372.5,340.5C 372.5,314.167 372.5,287.833 372.5,261.5C 377.997,250.502 383.997,239.835 390.5,229.5 Z"/></g>
<g><path style="opacity:0.999" fill="#f0eaea" d="M 304.5,266.5 C 309.5,268.664 314.167,271.331 318.5,274.5C 315.174,274.967 314.841,276.134 317.5,278C 314.833,279.333 314.833,280.667 317.5,282C 314.833,283.333 314.833,284.667 317.5,286C 314.833,287.333 314.833,288.667 317.5,290C 314.833,291.333 314.833,292.667 317.5,294C 314.833,295.333 314.833,296.667 317.5,298C 314.833,299.333 314.833,300.667 317.5,302C 316.833,302.667 316.167,303.333 315.5,304C 316.312,305.823 317.312,307.656 318.5,309.5C 311.903,306.225 305.57,302.558 299.5,298.5C 299.404,287.281 299.07,276.114 298.5,265C 300.506,265.15 302.506,265.65 304.5,266.5 Z"/></g>
<g><path style="opacity:1" fill="#e0d7d7" d="M 372.5,261.5 C 372.5,287.833 372.5,314.167 372.5,340.5C 369.658,339.828 367.158,338.494 365,336.5C 362.143,340.898 359.309,345.232 356.5,349.5C 355.244,349.539 354.244,349.039 353.5,348C 354.052,329.776 354.386,311.276 354.5,292.5C 359.746,281.667 365.746,271.334 372.5,261.5 Z"/></g>
<g><path style="opacity:1" fill="#ebe4e4" d="M 318.5,274.5 C 325.332,277.412 331.666,281.079 337.5,285.5C 336.761,285.369 336.094,285.536 335.5,286C 335.5,296.667 335.5,307.333 335.5,318C 336.381,318.708 337.047,319.542 337.5,320.5C 330.903,317.225 324.57,313.558 318.5,309.5C 317.312,307.656 316.312,305.823 315.5,304C 316.167,303.333 316.833,302.667 317.5,302C 314.833,300.667 314.833,299.333 317.5,298C 314.833,296.667 314.833,295.333 317.5,294C 314.833,292.667 314.833,291.333 317.5,290C 314.833,288.667 314.833,287.333 317.5,286C 314.833,284.667 314.833,283.333 317.5,282C 314.833,280.667 314.833,279.333 317.5,278C 314.841,276.134 315.174,274.967 318.5,274.5 Z"/></g>
<g><path style="opacity:0.588" fill="#dcd4d4" d="M 446.5,192.5 C 447.499,244.331 447.832,296.331 447.5,348.5C 446.508,348.672 445.842,348.338 445.5,347.5C 446.833,296.833 446.833,246.167 445.5,195.5C 445.557,194.391 445.89,193.391 446.5,192.5 Z"/></g>
<g><path style="opacity:1" fill="#e5dede" d="M 337.5,285.5 C 342.605,287.887 347.605,290.554 352.5,293.5C 353.183,293.137 353.85,292.804 354.5,292.5C 354.386,311.276 354.052,329.776 353.5,348C 354.244,349.039 355.244,349.539 356.5,349.5C 351.254,360.333 345.254,370.666 338.5,380.5C 337.373,379.878 336.373,379.045 335.5,378C 336.833,361.333 336.833,344.667 335.5,328C 336.167,327.333 336.833,326.667 337.5,326C 336.748,325.329 336.414,324.496 336.5,323.5C 336.557,322.391 336.89,321.391 337.5,320.5C 337.047,319.542 336.381,318.708 335.5,318C 335.5,307.333 335.5,296.667 335.5,286C 336.094,285.536 336.761,285.369 337.5,285.5 Z"/></g>
<g><path style="opacity:1" fill="#d5cbcb" d="M 393.5,317.5 C 401.199,321.344 408.532,325.678 415.5,330.5C 413.628,329.205 411.962,329.372 410.5,331C 409.79,341.311 409.79,351.811 410.5,362.5C 403.903,359.225 397.57,355.558 391.5,351.5C 390.789,348.808 390.789,346.308 391.5,344C 388.833,342.667 388.833,341.333 391.5,340C 391.5,338.667 391.5,337.333 391.5,336C 388.833,334.667 388.833,333.333 391.5,332C 391.5,330.667 391.5,329.333 391.5,328C 388.833,326.667 388.833,325.333 391.5,324C 391.5,322.667 391.5,321.333 391.5,320C 389.044,317.841 389.71,317.008 393.5,317.5 Z"/></g>
<g><path style="opacity:1" fill="#eae4e4" d="M 336.5,323.5 C 336.414,324.496 336.748,325.329 337.5,326C 336.833,326.667 336.167,327.333 335.5,328C 336.833,344.667 336.833,361.333 335.5,378C 336.373,379.045 337.373,379.878 338.5,380.5C 332.921,391.998 326.588,402.998 319.5,413.5C 317.9,414.512 316.566,414.012 315.5,412C 318.167,410.667 318.167,409.333 315.5,408C 318.167,406.667 318.167,405.333 315.5,404C 318.167,402.667 318.167,401.333 315.5,400C 318.167,398.667 318.167,397.333 315.5,396C 318.167,394.667 318.167,393.333 315.5,392C 318.167,390.667 318.167,389.333 315.5,388C 318.167,386.667 318.167,385.333 315.5,384C 318.167,382.667 318.167,381.333 315.5,380C 318.167,378.667 318.167,377.333 315.5,376C 318.167,374.667 318.167,373.333 315.5,372C 318.167,370.667 318.167,369.333 315.5,368C 318.167,366.667 318.167,365.333 315.5,364C 317.402,362.606 317.735,360.773 316.5,358.5C 322.411,346.337 329.078,334.67 336.5,323.5 Z"/></g>
<g><path style="opacity:1" fill="#d0c5c5" d="M 415.5,330.5 C 421.83,333.33 427.83,336.663 433.5,340.5C 432.178,340.67 431.011,340.337 430,339.5C 429.5,340 429,340.5 428.5,341C 428.216,351.654 428.55,362.487 429.5,373.5C 422.903,370.225 416.57,366.558 410.5,362.5C 409.79,351.811 409.79,341.311 410.5,331C 411.962,329.372 413.628,329.205 415.5,330.5 Z"/></g>
<g><path style="opacity:1" fill="#cbbfbf" d="M 433.5,340.5 C 437.864,342.344 441.864,344.677 445.5,347.5C 445.842,348.338 446.508,348.672 447.5,348.5C 447.489,350.017 446.823,351.184 445.5,352C 446.833,367.333 446.833,382.667 445.5,398C 447,400.167 448.167,400 449,397.5C 449.671,398.252 450.504,398.586 451.5,398.5C 444.996,403.255 437.996,407.255 430.5,410.5C 429.711,410.217 429.044,409.717 428.5,409C 429.833,399 429.833,389 428.5,379C 429.305,377.887 429.972,376.721 430.5,375.5C 430.167,374.833 429.833,374.167 429.5,373.5C 428.55,362.487 428.216,351.654 428.5,341C 429,340.5 429.5,340 430,339.5C 431.011,340.337 432.178,340.67 433.5,340.5 Z"/></g>
<g><path style="opacity:0.999" fill="#f0eaea" d="M 316.5,358.5 C 317.735,360.773 317.402,362.606 315.5,364C 318.167,365.333 318.167,366.667 315.5,368C 318.167,369.333 318.167,370.667 315.5,372C 318.167,373.333 318.167,374.667 315.5,376C 318.167,377.333 318.167,378.667 315.5,380C 318.167,381.333 318.167,382.667 315.5,384C 318.167,385.333 318.167,386.667 315.5,388C 318.167,389.333 318.167,390.667 315.5,392C 318.167,393.333 318.167,394.667 315.5,396C 318.167,397.333 318.167,398.667 315.5,400C 318.167,401.333 318.167,402.667 315.5,404C 318.167,405.333 318.167,406.667 315.5,408C 318.167,409.333 318.167,410.667 315.5,412C 316.566,414.012 317.9,414.512 319.5,413.5C 313.558,424.763 307.225,435.763 300.5,446.5C 299.711,446.217 299.044,445.717 298.5,445C 299.168,426.667 299.168,408.167 298.5,389.5C 303.746,378.667 309.746,368.334 316.5,358.5 Z"/></g>
<g><path style="opacity:1" fill="#d0c5c5" d="M 430.5,375.5 C 429.972,376.721 429.305,377.887 428.5,379C 429.833,389 429.833,399 428.5,409C 429.044,409.717 429.711,410.217 430.5,410.5C 425.335,414.586 419.668,417.92 413.5,420.5C 411.804,420.315 410.471,419.481 409.5,418C 409.5,408.667 409.5,399.333 409.5,390C 410.823,389.184 411.489,388.017 411.5,386.5C 417.57,382.442 423.903,378.775 430.5,375.5 Z"/></g>
<g><path style="opacity:1" fill="#d6cccc" d="M 411.5,386.5 C 411.489,388.017 410.823,389.184 409.5,390C 409.5,399.333 409.5,408.667 409.5,418C 410.471,419.481 411.804,420.315 413.5,420.5C 406.996,425.255 399.996,429.255 392.5,432.5C 389.422,431.336 389.088,429.836 391.5,428C 391.5,426.667 391.5,425.333 391.5,424C 388.833,422.667 388.833,421.333 391.5,420C 391.5,418.667 391.5,417.333 391.5,416C 388.833,414.667 388.833,413.333 391.5,412C 391.5,410.667 391.5,409.333 391.5,408C 388.833,406.667 388.833,405.333 391.5,404C 391.167,403 390.833,402 390.5,401C 391.305,399.887 391.972,398.721 392.5,397.5C 398.334,393.079 404.668,389.412 411.5,386.5 Z"/></g>
<g><path style="opacity:0.999" fill="#f5f0f0" d="M 298.5,389.5 C 299.168,408.167 299.168,426.667 298.5,445C 299.044,445.717 299.711,446.217 300.5,446.5C 300.489,448.017 299.823,449.184 298.5,450C 299.094,450.464 299.761,450.631 300.5,450.5C 300.047,451.458 299.381,452.292 298.5,453C 298.5,463.667 298.5,474.333 298.5,485C 299.094,485.464 299.761,485.631 300.5,485.5C 295.335,489.586 289.668,492.92 283.5,495.5C 282.448,495.649 281.448,495.483 280.5,495C 281.598,470.216 281.598,445.382 280.5,420.5C 285.746,409.667 291.746,399.334 298.5,389.5 Z"/></g>
<g><path style="opacity:1" fill="#dbd2d2" d="M 392.5,397.5 C 391.972,398.721 391.305,399.887 390.5,401C 390.833,402 391.167,403 391.5,404C 388.833,405.333 388.833,406.667 391.5,408C 391.5,409.333 391.5,410.667 391.5,412C 388.833,413.333 388.833,414.667 391.5,416C 391.5,417.333 391.5,418.667 391.5,420C 388.833,421.333 388.833,422.667 391.5,424C 391.5,425.333 391.5,426.667 391.5,428C 389.088,429.836 389.422,431.336 392.5,432.5C 387.006,436.082 381.339,439.415 375.5,442.5C 373.804,442.315 372.471,441.481 371.5,440C 371.5,430.667 371.5,421.333 371.5,412C 372.823,411.184 373.489,410.017 373.5,408.5C 379.334,404.079 385.668,400.412 392.5,397.5 Z"/></g>
<g><path style="opacity:1" fill="#e1d9d9" d="M 373.5,408.5 C 373.489,410.017 372.823,411.184 371.5,412C 371.5,421.333 371.5,430.667 371.5,440C 372.471,441.481 373.804,442.315 375.5,442.5C 369.83,446.337 363.83,449.67 357.5,452.5C 355.804,452.315 354.471,451.481 353.5,450C 354.504,440.012 354.837,429.845 354.5,419.5C 360.334,415.079 366.668,411.412 373.5,408.5 Z"/></g>
<g><path style="opacity:1" fill="#e5dede" d="M 354.5,419.5 C 354.837,429.845 354.504,440.012 353.5,450C 354.471,451.481 355.804,452.315 357.5,452.5C 351.87,456.654 345.87,460.321 339.5,463.5C 337.897,463.688 336.563,463.188 335.5,462C 336.833,452 336.833,442 335.5,432C 336.71,430.961 337.71,429.794 338.5,428.5C 343.502,424.997 348.835,421.997 354.5,419.5 Z"/></g>
<g><path style="opacity:0.997" fill="#f8f4f4" d="M 280.5,420.5 C 281.598,445.382 281.598,470.216 280.5,495C 281.448,495.483 282.448,495.649 283.5,495.5C 281.664,497.588 279.331,498.921 276.5,499.5C 275.244,499.539 274.244,499.039 273.5,498C 273.5,476.667 273.5,455.333 273.5,434C 275.373,433.047 275.706,431.88 274.5,430.5C 276.012,426.799 278.012,423.466 280.5,420.5 Z"/></g>
<g><path style="opacity:1" fill="#ebe4e4" d="M 338.5,428.5 C 337.71,429.794 336.71,430.961 335.5,432C 336.833,442 336.833,452 335.5,462C 336.563,463.188 337.897,463.688 339.5,463.5C 333.162,467.671 326.496,471.337 319.5,474.5C 315.891,473.818 315.225,472.318 317.5,470C 314.833,468.667 314.833,467.333 317.5,466C 314.833,464.667 314.833,463.333 317.5,462C 314.833,460.667 314.833,459.333 317.5,458C 314.833,456.667 314.833,455.333 317.5,454C 314.833,452.667 314.833,451.333 317.5,450C 314.833,448.667 314.833,447.333 317.5,446C 316.833,445.333 316.167,444.667 315.5,444C 317.041,442.629 318.375,441.129 319.5,439.5C 325.57,435.442 331.903,431.775 338.5,428.5 Z"/></g>
<g><path style="opacity:1" fill="#f0eaea" d="M 319.5,439.5 C 318.375,441.129 317.041,442.629 315.5,444C 316.167,444.667 316.833,445.333 317.5,446C 314.833,447.333 314.833,448.667 317.5,450C 314.833,451.333 314.833,452.667 317.5,454C 314.833,455.333 314.833,456.667 317.5,458C 314.833,459.333 314.833,460.667 317.5,462C 314.833,463.333 314.833,464.667 317.5,466C 314.833,467.333 314.833,468.667 317.5,470C 315.225,472.318 315.891,473.818 319.5,474.5C 313.666,478.921 307.332,482.588 300.5,485.5C 299.761,485.631 299.094,485.464 298.5,485C 298.5,474.333 298.5,463.667 298.5,453C 299.381,452.292 300.047,451.458 300.5,450.5C 306.57,446.442 312.903,442.775 319.5,439.5 Z"/></g>
</svg>
